<svg xmlns:xlink="http://www.w3.org/1999/xlink" xmlns="http://www.w3.org/2000/svg" version="1.1" viewBox="0 0 1024 1024" height="1024px" width="1024px">
    <title>网络不给力</title>
    <defs>
        <linearGradient id="linearGradient-1" y2="44.0501254%" x2="50%" y1="-29.88559%" x1="50%">
            <stop offset="0%" stop-color="#CFDFFA"></stop>
            <stop offset="100%" stop-opacity="0" stop-color="#EAF0FC"></stop>
        </linearGradient>
        <linearGradient id="linearGradient-2" y2="69.8229089%" x2="53.6226986%" y1="33.7484636%" x1="50%">
            <stop offset="0%" stop-color="#CFDFFA"></stop>
            <stop offset="100%" stop-opacity="0" stop-color="#EAF0FC"></stop>
        </linearGradient>
        <linearGradient id="linearGradient-3" y2="66.4977364%" x2="53.6226986%" y1="36.47456%" x1="50%">
            <stop offset="0%" stop-color="#CFDFFA"></stop>
            <stop offset="100%" stop-opacity="0" stop-color="#EAF0FC"></stop>
        </linearGradient>
        <linearGradient id="linearGradient-4" y2="100%" x2="57.28025%" y1="11.4973736%" x1="50%">
            <stop offset="0%" stop-color="#BFD4FA"></stop>
            <stop offset="100%" stop-color="#5792F0"></stop>
        </linearGradient>
        <linearGradient id="linearGradient-5" y2="131.881015%" x2="51.9400923%" y1="11.4973736%" x1="50%">
            <stop offset="0%" stop-color="#BFD4FA"></stop>
            <stop offset="100%" stop-color="#5792F0"></stop>
        </linearGradient>
        <linearGradient id="linearGradient-6" y2="128.49897%" x2="74.2827921%" y1="13.0877007%" x1="50%">
            <stop offset="0%" stop-color="#BFD4FA"></stop>
            <stop offset="100%" stop-color="#5792F0"></stop>
        </linearGradient>
        <linearGradient id="linearGradient-7" y2="131.881015%" x2="54.0733641%" y1="11.4973736%" x1="50%">
            <stop offset="0%" stop-color="#BFD4FA"></stop>
            <stop offset="100%" stop-color="#5792F0"></stop>
        </linearGradient>
        <linearGradient id="linearGradient-8" y2="131.881015%" x2="51.9795749%" y1="11.4973736%" x1="50%">
            <stop offset="0%" stop-color="#BFD4FA"></stop>
            <stop offset="100%" stop-color="#5792F0"></stop>
        </linearGradient>
        <linearGradient id="linearGradient-9" y2="131.881015%" x2="55.3643684%" y1="11.4973736%" x1="50%">
            <stop offset="0%" stop-color="#BFD4FA"></stop>
            <stop offset="100%" stop-color="#5792F0"></stop>
        </linearGradient>
        <linearGradient id="linearGradient-10" y2="53.7022797%" x2="74.2827921%" y1="48.2590898%" x1="50%">
            <stop offset="0%" stop-color="#BFD4FA"></stop>
            <stop offset="100%" stop-color="#5792F0"></stop>
        </linearGradient>
        <linearGradient id="linearGradient-11" y2="53.1454589%" x2="144.920412%" y1="48.0543586%" x1="24.8382163%">
            <stop offset="0%" stop-color="#BFD4FA"></stop>
            <stop offset="100%" stop-color="#5792F0"></stop>
        </linearGradient>
        <linearGradient id="linearGradient-12" y2="143.824014%" x2="74.297328%" y1="-8.03537495%" x1="43.5591924%">
            <stop offset="0%" stop-color="#BFD4FA"></stop>
            <stop offset="100%" stop-color="#5792F0"></stop>
        </linearGradient>
        <linearGradient id="linearGradient-13" y2="160.618816%" x2="100%" y1="-32.622056%" x1="50%">
            <stop offset="0%" stop-color="#BFD4FA"></stop>
            <stop offset="100%" stop-color="#5792F0"></stop>
        </linearGradient>
        <linearGradient id="linearGradient-14" y2="106.953008%" x2="76.8816111%" y1="15.6049428%" x1="28.2165929%">
            <stop offset="0%" stop-color="#BFD4FA"></stop>
            <stop offset="100%" stop-color="#5792F0"></stop>
        </linearGradient>
        <linearGradient id="linearGradient-15" y2="101.851828%" x2="7.28091586%" y1="31.2534816%" x1="87.9236244%">
            <stop offset="0%" stop-color="#5792F0"></stop>
            <stop offset="100%" stop-opacity="0.5" stop-color="#BFD4FA"></stop>
        </linearGradient>
        <linearGradient id="linearGradient-16" y2="80.2920255%" x2="144.920412%" y1="31.2626962%" x1="24.8382163%">
            <stop offset="0%" stop-color="#BFD4FA"></stop>
            <stop offset="100%" stop-color="#5792F0"></stop>
        </linearGradient>
        <linearGradient id="linearGradient-17" y2="63.9265576%" x2="7.28091586%" y1="44.9649901%" x1="87.9236244%">
            <stop offset="0%" stop-color="#5792F0"></stop>
            <stop offset="100%" stop-opacity="0.5" stop-color="#BFD4FA"></stop>
        </linearGradient>
        <linearGradient id="linearGradient-18" y2="54.6474322%" x2="7.28091586%" y1="48.3197666%" x1="87.9236244%">
            <stop offset="0%" stop-color="#5792F0"></stop>
            <stop offset="100%" stop-opacity="0.5" stop-color="#BFD4FA"></stop>
        </linearGradient>
        <linearGradient id="linearGradient-19" y2="206.776104%" x2="50%" y1="0%" x1="50%">
            <stop offset="0%" stop-color="#FFCDA5"></stop>
            <stop offset="100%" stop-color="#FFE8D1"></stop>
        </linearGradient>
        <linearGradient id="linearGradient-20" y2="88.9526623%" x2="55.2646375%" y1="0%" x1="50%">
            <stop offset="0%" stop-color="#FFF2DF"></stop>
            <stop offset="100%" stop-color="#FEE0BC"></stop>
        </linearGradient>
        <linearGradient id="linearGradient-21" y2="59.4908587%" x2="100%" y1="34.6227424%" x1="14.3474826%">
            <stop offset="0%" stop-color="#BFD4FA"></stop>
            <stop offset="100%" stop-color="#5792F0"></stop>
        </linearGradient>
        <linearGradient id="linearGradient-22" y2="62.0122195%" x2="100%" y1="30.5375889%" x1="14.3474826%">
            <stop offset="0%" stop-color="#BFD4FA"></stop>
            <stop offset="100%" stop-color="#5792F0"></stop>
        </linearGradient>
        <linearGradient id="linearGradient-23" y2="100%" x2="61.8017126%" y1="-31.010887%" x1="41.5847847%">
            <stop offset="0%" stop-color="#BFD4FA"></stop>
            <stop offset="100%" stop-color="#5792F0"></stop>
        </linearGradient>
        <linearGradient id="linearGradient-24" y2="100%" x2="50%" y1="0%" x1="50%">
            <stop offset="0%" stop-color="#FEE127"></stop>
            <stop offset="100%" stop-color="#F9AB21"></stop>
        </linearGradient>
    </defs>
    <g fill-rule="evenodd" fill="none" stroke-width="1" stroke="none" id="网络不给力">
        <rect height="1024" width="1024" y="0" x="0" id="矩形"></rect>
        <g transform="translate(32.000000, 149.000000)" id="编组">
            <g id="背景">
                <ellipse ry="250" rx="480" cy="766" cx="480" fill="url(#linearGradient-1)" id="椭圆形"></ellipse>
                <path fill="url(#linearGradient-2)" id="云" d="M814,116.212121 C814,130.606061 800.181818,142.121212 782.727273,142.121212 L686,142.121212 C668.545455,140.969697 654,130.030303 654,115.060606 C654,105.272727 660.545455,96.6363636 670,92.030303 C669.272727,90.3030303 668.545455,88.5757576 668.545455,86.8484848 C668.545455,77.0606061 678,68.4242424 690.363636,68.4242424 C695.454545,68.4242424 699.818182,70.1515152 703.454545,72.4545455 C712.181818,59.2121212 728.181818,50 747.090909,50 C773.272727,50 794.363636,67.8484848 794.363636,89.7272727 L794.363636,92.030303 C806,96.0606061 814,105.272727 814,116.212121 Z"></path>
                <path fill="url(#linearGradient-3)" id="云" d="M166.222222,0 C190.894883,0 211.8847,15.7681262 219.664106,37.7768098 L256.5,37.7777778 C266.164983,37.7777778 274,45.6127947 274,55.2777778 L274,98.0555556 C274,107.720539 266.164983,115.555556 256.5,115.555556 L78.1666667,115.555556 C68.5016835,115.555556 60.6666667,107.720539 60.6666667,98.0555556 L60.6669111,85.6467185 C56.4406838,78.8453656 54,70.81882 54,62.2222222 C54,37.6762333 73.8984556,17.7777778 98.4444444,17.7777778 C106.377692,17.7777778 113.825468,19.8563268 120.272891,23.4985432 C130.565544,9.26259942 147.312185,0 166.222222,0 Z"></path>
                <g transform="translate(170.000000, 570.000000)" id="草">
                    <ellipse ry="4" rx="12.8" cy="78" cx="26.8" fill="#CCDCF6" id="椭圆形"></ellipse>
                    <path fill-rule="nonzero" fill="url(#linearGradient-4)" id="路径-42" d="M13.2096985,76.4334696 C14.9527214,47.3262499 22.2548023,30.479152 35.1159413,25.892176 C40.1793835,25.2161532 45.8226773,24.1997042 41.8878028,30.7617951 C37.9529282,37.3238861 27.4160559,34.7701422 16.879533,76.4161198 C15.9265298,78.1966928 14.7032516,78.202476 13.2096985,76.4334696 Z"></path>
                    <path fill-rule="nonzero" fill="url(#linearGradient-5)" id="路径-41" d="M12.9692534,76.0688036 C9.54744327,48.8820916 6.74680699,31.7849012 4.56734456,24.7772324 C1.2981509,14.2657291 -5.66257226,-5.963969 8.82439601,1.68943966 C23.3113643,9.34284832 25.0241679,48.6011298 18.327685,72.4929976 C16.2462776,78.5387167 14.4601337,79.730652 12.9692534,76.0688036 Z"></path>
                </g>
                <g fill-rule="nonzero" transform="translate(686.120225, 515.426704)" id="草">
                    <path fill="url(#linearGradient-6)" id="路径-43" d="M65.8576891,95.4430222 C63.3395468,83.9806553 55.9856639,75.9680543 43.7960405,71.4052192 C29.8759357,66.9305791 22.2494886,61.6117041 30.9599814,57.7550267 C38.3155159,57.1703291 54.0022982,51.4419217 65.8576891,85.6583003 C66.6827635,88.9740418 66.6827635,92.2356158 65.8576891,95.4430222 Z"></path>
                    <path fill="url(#linearGradient-7)" id="路径-44" d="M66.4764949,97.2611071 C59.1454779,69.8960192 50.8174439,49.9170768 41.4923928,37.3242799 C34.6452589,28.7188412 35.1250476,16.405104 41.4923928,13.6218727 C48.0100381,12.8970718 60.0222617,11.7760378 69.0669112,58.9373338 C69.6381527,62.1812743 72.8251647,81.1589956 69.0669112,93.4066801 C68.5106318,95.0875751 67.6471596,96.3723841 66.4764949,97.2611071 Z"></path>
                    <path fill="url(#linearGradient-8)" id="路径-45" d="M68.1696321,91.0804085 C71.4853494,78.835463 71.0643832,62.8586309 66.9067333,43.1499123 C60.5471905,24.0440706 49.6921744,0.541796566 69.4774519,0 C77.5044316,1.09154868 87.1972186,9.50543486 83.5347739,51.4392686 C81.3029234,68.3604083 77.4213217,78.3565362 73.3477064,91.0804085 C71.9266832,91.8737887 70.2006584,91.8737887 68.1696321,91.0804085 Z"></path>
                    <path fill="url(#linearGradient-9)" id="路径-46" d="M72.0427224,95.836031 C70.7154818,61.2121058 77.0522244,36.363996 91.0529503,21.2917016 C94.833726,16.2551414 109.217459,11.5380494 109.163159,27.3263959 C107.661554,34.1152854 104.448437,48.6087163 85.9202741,70.7214245 C79.8162941,78.7025415 75.8046094,90.365172 75.7655073,93.0996265 C75.7394392,94.9225962 74.4985109,95.834731 72.0427224,95.836031 Z"></path>
                    <path fill="url(#linearGradient-10)" id="路径-47" d="M0,100.407711 C13.8643816,97.8236334 21.5103995,95.6299697 22.9380537,93.8267198 C25.0795349,91.1218449 43.9450099,79.5080271 55.7094426,89.2905093 C58.2703723,85.9992821 66.4835238,83.4391237 71.1837342,89.2905093 C73.3341085,80.0524096 86.7490663,74.1360276 92.583369,75.0945046 C99.1537088,74.5803177 118.55034,74.7942504 120,100.407711 C114.707841,100.530921 74.7078414,100.530921 0,100.407711 Z"></path>
                </g>
            </g>
            <g fill-rule="nonzero" transform="translate(149.187186, 52.993109)" id="信号">
                <rect rx="13" height="45.0555593" width="246.07267" y="489.551952" x="125.473506" fill="url(#linearGradient-11)" id="矩形"></rect>
                <path fill="url(#linearGradient-12)" id="形状" d="M210.810867,503.270524 C214.420624,503.98433 217.925603,501.636886 218.639464,498.027354 L222.34389,479.279859 C222.743648,479.086654 223.176719,478.980059 223.543164,478.706908 L253.338473,456.248554 L282.380904,478.280525 L286.285209,498.034017 C286.743477,500.372473 288.415896,502.288122 290.671209,503.0579 C292.926522,503.827677 295.421267,503.334354 297.213799,501.764134 C299.006332,500.193915 299.823667,497.785929 299.357301,495.449074 L286.032028,427.994066 C286.01536,427.253188 285.871112,426.520726 285.60562,425.828844 L265.277917,322.890836 C264.564056,319.281304 261.059077,316.93386 257.44932,317.647666 C255.064814,318.141408 253.146325,319.908665 252.459005,322.2446 C251.771686,319.908665 249.853196,318.141408 247.468691,317.647666 C243.858933,316.93386 240.353955,319.281304 239.640093,322.890836 L205.56071,495.442412 C204.851064,499.05331 207.200609,502.556539 210.810867,503.270524 L210.810867,503.270524 Z M271.967204,425.515719 L253.371786,439.533036 L233.217312,424.243234 L237.448086,402.804201 L267.483249,402.804201 L271.967204,425.515719 L271.967204,425.515719 Z M226.13493,460.059345 L230.332391,438.79353 L242.298485,447.87414 L226.13493,460.059345 Z M264.398449,447.900788 L274.832137,440.039365 L278.496587,458.600319 L264.398449,447.900788 Z M252.459005,326.774912 L264.844846,389.479755 L240.073165,389.479755 L252.459005,326.774912 L252.459005,326.774912 Z"></path>
                <path fill="url(#linearGradient-13)" id="路径" d="M232.913686,310.196168 C232.913686,321.20233 241.835944,330.124588 252.842107,330.124588 C263.848269,330.124588 272.770527,321.20233 272.770527,310.196168 C272.770527,299.190005 263.848269,290.267747 252.842107,290.267747 C241.835944,290.267747 232.913686,299.190005 232.913686,310.196168 Z"></path>
                <path fill="url(#linearGradient-14)" id="形状结合" d="M432.518942,311.979853 C432.518942,360.590784 413.201942,406.172115 379.463557,439.818478 C374.719899,444.549198 367.039398,444.538709 362.308678,439.795051 C357.577958,435.051393 357.588446,427.370891 362.332105,422.640171 C391.55168,393.500292 408.258257,354.078646 408.258257,311.979853 C408.258257,233.832267 350.899955,169.08143 275.986268,157.53026 L281.435058,145.570086 L273.249434,132.676738 C362.935081,143.204211 432.518942,219.465942 432.518942,311.979853 Z M216.91998,134.837615 L225.115609,145.570086 L220.908413,158.785169 C149.479239,173.192158 95.6930505,236.304787 95.6930505,311.979853 C95.6930505,352.748066 111.353576,391.023323 138.95002,419.912912 C143.577552,424.757286 143.401767,432.435783 138.557393,437.063314 C133.713019,441.690846 126.034523,441.515061 121.406991,436.670687 C89.5408294,403.311305 71.4323647,359.053139 71.4323647,311.979853 C71.4323647,224.262899 133.987292,151.156431 216.91998,134.837615 Z M371.646793,303.094888 C371.646793,335.312495 358.840077,365.531842 336.479638,387.831294 C331.735979,392.562014 324.055478,392.551525 319.324758,387.807867 C314.594038,383.064209 314.604527,375.383708 319.348185,370.652988 C337.189816,352.86002 347.386108,328.800357 347.386108,303.094888 C347.386108,252.095867 307.372887,210.442433 257.027756,207.8159 L254.966056,203.682954 L263.925682,184.012932 C324.40756,190.009211 371.646793,241.035393 371.646793,303.094888 Z M210.751409,190.713693 L203.280991,214.195275 L207.980473,218.41116 C177.428726,234.315928 156.5652,266.268939 156.5652,303.094888 C156.5652,327.988131 166.122896,351.347709 182.973086,368.987485 C187.600617,373.831858 187.424832,381.510355 182.580458,386.137886 C177.736085,390.765418 170.057588,390.589633 165.430057,385.745259 C144.310149,363.635691 132.304514,334.293204 132.304514,303.094888 C132.304514,251.489124 164.969523,207.512682 210.751409,190.713693 Z M228.232237,236.5841 L244.177576,250.894508 L242.607333,257.350622 C225.818135,261.536791 213.379206,276.716889 213.379206,294.802254 C213.379206,299.559725 214.234751,304.180157 215.881561,308.512178 L216.221454,309.374692 C218.75292,315.577408 215.776785,322.657862 209.57407,325.189329 C203.371354,327.720795 196.2909,324.74466 193.759433,318.541945 C190.707859,311.064837 189.11852,303.033871 189.11852,294.802254 C189.11852,268.488563 205.287579,245.951358 228.232237,236.5841 Z M314.832787,294.802254 C314.832787,302.711659 313.365498,310.437472 310.541255,317.667092 C308.103544,323.90725 301.068741,326.989743 294.828583,324.552032 C288.721195,322.166187 285.638532,315.37679 287.795519,309.238695 L287.943644,308.83936 C289.67322,304.411916 290.572102,299.678977 290.572102,294.802254 C290.572102,279.176835 281.286891,265.720094 267.933096,259.648656 L278.496587,250.894508 L270.425558,234.696357 C296.137439,242.579245 314.832787,266.507483 314.832787,294.802254 Z"></path>
                <path stroke="url(#linearGradient-15)" id="路径-20" d="M560,97.3401415 C496.793601,104.806891 447.530724,94.8813895 412.211369,67.5636362 C384.269815,44.9749712 392.717123,0 419.303388,0 C445.889653,0 462.014068,22.1800535 462.014068,56.6404064 C462.014068,91.1007592 444.646946,131.192008 419.303388,148.904071"></path>
                <path transform="translate(390.884597, 142.542566) rotate(-14.000000) translate(-390.884597, -142.542566)" fill="url(#linearGradient-16)" id="路径-18" d="M417.10834,135.910776 C408.580585,124.885784 398.04481,124.885784 385.501016,135.910776 C378.866962,142.129041 374.491526,152.073471 364.660854,152.073471 C395.490092,162.821692 412.972588,157.434126 417.10834,135.910776 Z"></path>
                <path transform="translate(408.687611, 132.266064) rotate(-14.000000) translate(-408.687611, -132.266064)" stroke="url(#linearGradient-17)" id="路径-19" d="M428.44791,123.029837 C425.286918,129.187322 412.113385,135.344806 388.927312,141.502291"></path>
                <path transform="translate(26.727790, 470.332015) rotate(2.000000) translate(-26.727790, -470.332015)" fill="url(#linearGradient-16)" id="路径-18备份" d="M52.9515327,463.700225 C44.4237778,452.675233 33.888003,452.675233 21.3442083,463.700225 C14.7101541,469.91849 10.3347187,479.86292 0.504046343,479.86292 C31.3332847,490.61114 48.8157802,485.223575 52.9515327,463.700225 Z"></path>
                <path transform="translate(46.673733, 465.360783) rotate(2.000000) translate(-46.673733, -465.360783)" stroke="url(#linearGradient-17)" id="路径-19备份" d="M66.4340315,456.124556 C63.2730394,462.28204 50.0995067,468.439525 26.9134335,474.59701"></path>
                <path stroke="url(#linearGradient-18)" id="路径-22" d="M79.7697005,417.322696 C53.0545618,429.319315 30.839725,435.317624 13.1251899,435.317624"></path>
            </g>
            <g transform="translate(614.000000, 580.852281) scale(-1, 1) translate(-614.000000, -580.852281) translate(564.000000, 457.704562)" id="人物">
                <ellipse ry="16" rx="50" cy="230.295438" cx="50" fill="#CCDCF6" id="椭圆形"></ellipse>
                <g transform="translate(2.000000, 0.000000)" id="头">
                    <rect height="10.438128" width="13.04766" y="34.3093927" x="26.2026953" fill="url(#linearGradient-19)" id="矩形"></rect>
                    <ellipse ry="18.2667239" rx="13.04766" cy="21.7293191" cx="29.2727517" transform="translate(29.272752, 21.729319) rotate(-21.000000) translate(-29.272752, -21.729319)" fill="url(#linearGradient-20)" id="椭圆形"></ellipse>
                    <path transform="translate(22.604169, 21.322986) scale(-1, 1) translate(-22.604169, -21.322986)" fill="#483029" id="路径-59" d="M8.5483265,6.7646305 C5.06916305,12.7546547 6.99610878,17.8607654 14.3291637,22.0829625 C20.6743427,19.5521771 20.602718,28.6261135 13.580975,32.629124 C14.5315971,36.2704291 14.5109963,40.7283353 22.0627256,41.0499601 C28.8386085,39.8639528 41.7920797,37.108657 37.4782914,14.5355515 C34.9450261,4.98198421 27.7024359,1.90191985 21.9264535,1.60058653 C15.3774521,1.49502155 10.9180764,3.21636954 8.5483265,6.7646305 Z"></path>
                    <circle r="7.82859597" cy="8.2140728" cx="7.82859597" fill="#483029" id="椭圆形"></circle>
                </g>
                <path fill-rule="nonzero" fill="url(#linearGradient-21)" id="脚-path" d="M22.0871441,217.06564 L22.0871441,225.74199 C23.1729505,226.214309 24.3212498,226.52742 25.4965206,226.671639 C27.2287266,226.888094 29.5249067,226.981428 29.5249067,226.981428 C29.5249067,226.981428 33.2696038,226.25263 36.9632368,225.122413 C40.8585727,223.930918 44.7113553,222.333465 44.7113553,222.333465 C44.7113553,222.333465 45.3692305,219.657424 43.7817059,218.924939 C41.4767314,217.861672 36.6531645,218.615151 36.6531645,218.615151 C36.6531645,218.615151 34.8823767,218.703661 33.5538603,218.615151 C32.9868246,218.568841 32.4468768,218.352842 32.0043501,217.995289 C30.2529227,218.178875 28.4871022,218.178875 26.7356748,217.995289 C25.1675207,217.787283 23.6146833,217.476734 22.0871441,217.06564 L22.0871441,217.06564 Z"></path>
                <path fill-rule="nonzero" fill="url(#linearGradient-22)" id="脚-path" d="M65.7871909,230.700025 L65.7871909,239.376091 C66.8728802,239.848627 68.0210764,240.162024 69.1962836,240.306592 C70.9287734,240.522195 73.2246698,240.615813 73.2246698,240.615813 C73.2246698,240.615813 76.9693669,239.886732 80.6627161,238.757649 C84.5583358,237.563317 88.4111185,235.967849 88.4111185,235.967849 C88.4111185,235.967849 89.0687096,233.29181 87.4811854,232.559324 C85.1776293,231.495774 80.3549134,232.249252 80.3549134,232.249252 C80.3549134,232.249252 78.5841256,232.337763 77.2556092,232.249252 C76.33674,232.187975 75.3960267,229.460587 75.3960267,229.460587 C75.3960267,229.460587 73.4167274,230.090094 70.4371401,230.700025 C68.9001949,230.984339 67.3241361,230.984339 65.7871909,230.700025 Z"></path>
                <path fill-rule="nonzero" fill="url(#linearGradient-23)" id="腿" d="M56.6602852,113.953392 C56.6602852,113.953392 68.4295172,157.798014 68.8864951,160.050075 C69.5948812,163.635103 70.112115,167.255265 70.4360053,170.895228 L75.7038294,229.771794 C74.4502563,230.495571 67.755192,231.739653 65.7869072,231.631093 C65.7869072,231.631093 63.3729884,222.229198 58.5451508,203.425409 C57.0945442,197.878378 52.7686777,173.130608 52.7695731,173.079245 C52.7698298,173.065167 41.148718,136.912236 39.9765098,135.024054 C39.8123704,135.963758 41.209602,172.373383 38.7618972,183.836144 C34.4632024,207.022148 32.313855,218.615151 32.313855,218.615151 C30.5620721,218.791803 23.4878889,217.960448 21.7765045,217.375713 C21.7765045,217.375713 22.5511692,208.29103 24.1004986,190.121663 C24.4104152,185.322045 25.3741413,167.069875 25.2475083,162.116069 C25.2475083,162.116069 23.0079443,147.159539 18.5288162,117.246478 L56.6602852,113.953392 Z"></path>
                <path fill="#FEE0BC" id="胳膊-path" d="M12.4794433,71.5966519 L12.7892319,89.2591396 C12.7892319,89.2591396 12.7917851,90.5002795 13.719165,91.1181546 C15.3645622,92.214613 18.368263,92.9774536 18.368263,92.9774536 L18.0581908,72.8355226 L12.4794433,71.5966519 Z"></path>
                <path fill="#FEE0BC" id="胳膊-path" d="M68.2666345,56.2436693 L73.5353097,58.4130404 L80.6635674,38.2711095 C80.9340836,37.5820011 81.0402499,36.8393229 80.97364,36.1020221 C80.6993119,33.4512305 79.7339183,29.2849713 79.7339183,29.2849713 C79.6970177,28.5487387 79.8022934,27.812291 80.0439902,27.115884 C81.3875424,23.5890602 84.6928044,16.2704471 84.6928044,16.2704471 C84.6928044,16.2704471 85.1963527,15.5572525 85.6224543,15.6508699 C86.2101646,15.7551413 86.6166286,16.2968862 86.5523873,16.8903079 L85.3126656,24.3272194 C85.3126656,24.3272194 88.3870053,27.607801 89.6531095,29.5950436 C90.1580767,30.3893733 89.9628982,31.4540587 89.9628982,31.4540587 L87.1736668,38.8909702 L80.3549138,68.948405 C80.3549138,68.948405 80.1444163,70.3044392 79.4249807,70.8077038 C78.6022819,71.3838765 77.2556092,71.1174923 77.2556092,71.1174923 L63.3088826,66.7793176 L68.2666345,56.2436693 Z"></path>
                <path fill="url(#linearGradient-24)" id="衣服" d="M29.5254744,42.2997793 C30.991518,42.9795528 32.5646957,43.3989581 34.1745724,43.5392173 C36.2458414,43.6413397 38.3221327,43.5375679 40.3728971,43.2294287 C44.4843231,44.555642 48.5195781,46.1073134 52.4603251,47.877392 C60.0285848,51.2864847 68.5764231,56.2436693 68.5764231,56.2436693 C68.128085,58.660947 67.5066238,61.0428832 66.7168406,63.3710759 C65.8587552,65.7190445 65.176776,67.1346847 63.9714847,69.3247851 L52.7732151,65.7419635 C52.7732151,65.7419635 54.0617505,79.2553998 55.2492733,90.639279 C56.6745277,104.300898 58.3485775,116.668327 58.3485775,116.668327 C58.3485775,116.668327 51.3825299,118.076853 38.6831843,119.137851 C28.4547714,119.992322 16.1138746,119.696186 16.1138746,119.696186 L17.0603572,74.6012821 L9.02358644,71.8798593 C9.02358644,71.8798593 11.6530568,61.7985869 17.43833,52.5256391 C20.3427397,47.8700161 29.5254744,42.2997793 29.5254744,42.2997793 Z"></path>
            </g>
        </g>
    </g>
</svg>