<svg xml:space="preserve" style="enable-background:new 0 0 1024 1024;" viewBox="0 0 1024 1024" y="0px" x="0px" xmlns:xlink="http://www.w3.org/1999/xlink" xmlns="http://www.w3.org/2000/svg" id="图层_1" version="1.1">
<style type="text/css">
	.st0{fill:#FF5F5F;stroke:#26282B;stroke-width:16;stroke-linecap:round;stroke-linejoin:round;stroke-miterlimit:10;}
	.st1{fill:#52CE90;stroke:#26282B;stroke-width:16;stroke-linecap:round;stroke-linejoin:round;stroke-miterlimit:10;}
	.st2{fill:#ED6464;stroke:#26282B;stroke-width:16;stroke-linecap:round;stroke-linejoin:round;stroke-miterlimit:10;}
	.st3{fill:#FFDE8A;stroke:#26282B;stroke-width:16;stroke-linecap:round;stroke-linejoin:round;stroke-miterlimit:10;}
	.st4{fill:#FFCE61;stroke:#26282B;stroke-width:16;stroke-linecap:round;stroke-linejoin:round;stroke-miterlimit:10;}
	.st5{fill:none;stroke:#26282B;stroke-width:16;stroke-linecap:round;stroke-linejoin:round;stroke-miterlimit:10;}
</style>
<g>
	<polygon points="547.46,243.17 976.69,275.96 875.48,343.19 923.35,461.81 540.74,308" class="st0"></polygon>
	<g>
		<path d="M546.6,406.71c-0.29,0.83-0.79,1.55-1.52,2.11c-2.85,2.23-8.02,1.11-11.55-2.51
			c-2.44-2.5-60.01-61.84-76.26-114.78c-1.3-4.24,1.16-7.52,5.51-7.31c4.35,0.2,8.93,3.81,10.23,8.05
			c14.78,48.14,70.29,105.39,70.84,105.97C546.49,400.94,547.47,404.27,546.6,406.71z" class="st1"></path>
		<path d="M471.85,296.31c0.08-0.92,0.37-1.79,0.9-2.53c2.09-2.94,7.06-2.89,11.11,0.11
			c2.8,2.08,68.95,51.42,95.95,103.05c2.17,4.14,0.67,8.08-3.34,8.81s-9.02-2.03-11.18-6.17c-24.55-46.95-88.34-94.57-88.98-95.05
			C473.28,302.3,471.63,299.04,471.85,296.31z" class="st1"></path>
	</g>
	<path d="M777.95,149.74l13.23,197.99c1.63,24.4-18.36,44.72-42.79,43.59c-72.8-3.38-214.61-22.85-290.89-119.32
		L777.95,149.74z" class="st0"></path>
	<polygon points="402.96,263.01 16.83,407.97 127.93,442.76 115.61,564.69 439.85,269.52" class="st0"></polygon>
	<path d="M465.61,260.85c0,0,310.61-176.78,312.39-109.01C778,151.85,766.43,242.68,465.61,260.85z" class="st2"></path>
	<path d="M159.18,205.7l15.54,166.85c2.57,27.56,28.92,46.43,55.85,40.05c66.48-15.74,179.92-56.57,230.87-157.33
		L159.18,205.7z" class="st0"></path>
	<path d="M461.43,255.28c0,0-311.11-132.88-301.27-49.67C160.16,205.61,190.96,280.47,461.43,255.28z" class="st2"></path>
	<g>
		<path d="M417.8,392.38c-0.81,0.25-1.68,0.33-2.58,0.22c-3.56-0.46-6.19-3.86-5.88-7.59
			c0.22-2.58,5.69-63.64,34.09-98.82c2.28-2.82,6.36-3.09,9.12-0.6c2.76,2.49,3.15,6.79,0.88,9.61
			c-25.82,31.99-31.13,90.88-31.18,91.48C422,389.46,420.19,391.65,417.8,392.38z" class="st1"></path>
		<path d="M449.65,296.57c0.74-0.42,1.57-0.68,2.48-0.76c3.58-0.31,6.88,2.44,7.36,6.16
			c0.34,2.57,8.04,63.38-12.19,103.82c-1.62,3.24-5.55,4.38-8.78,2.53c-3.23-1.84-4.53-5.96-2.91-9.2
			c18.39-36.77,11-95.44,10.92-96.03C446.17,300.32,447.48,297.8,449.65,296.57z" class="st1"></path>
	</g>
	<path d="M482.1,305.06h-31.89c-8.42,0-15.25-6.83-15.25-15.25v-31.89c0-8.42,6.83-15.25,15.25-15.25h31.89
		c8.42,0,15.25,6.83,15.25,15.25v31.89C497.35,298.23,490.52,305.06,482.1,305.06z" class="st0"></path>
	<path d="M469.69,583.72l-0.33-0.21c37.04-69.07,14.84-156.03-52.48-198.48c-67.32-42.45-155.36-25-201.72,38.2
		l-0.33-0.21c0,0-73.17,108-179.79,174.49l354.7,223.65C389.74,821.17,401.03,689.6,469.69,583.72z" class="st3"></path>
	
		<ellipse ry="212.27" rx="50.26" cy="715.08" cx="208.78" class="st4" transform="matrix(0.5334 -0.8459 0.8459 0.5334 -507.4539 510.2896)"></ellipse>
	<path d="M177.1,471.48c9-14.27,90.8,3.83,155.53,42.29c68.35,40.61,116.25,109.13,107.25,123.4" class="st5"></path>
	<path d="M986.83,570.33L986.83,570.33c0.01-0.01-133.51-59.23-219.48-169.19l-0.72,0.57
		c-59.28-59.86-155.41-66.45-222.56-12.56s-81.52,149.18-35.91,220l-0.72,0.57c0,0,86.57,115.44,117.67,250.91l0.01-0.01
		c0.32,6.43,2.15,11.91,5.63,16.25c25.46,31.73,129.1-9.16,231.47-91.32s164.72-174.49,139.26-206.22
		C997.99,575,993.04,572.03,986.83,570.33z" class="st3"></path>
	<path d="M555.78,686.23c-11.68-15.24,39.76-95.27,106.21-149.04c70.17-56.77,162.04-80.68,173.72-65.43" class="st5"></path>
</g>
</svg>
